<svg width="64" height="64" viewBox="0 0 64 64" xmlns="http://www.w3.org/2000/svg">
  <defs>
    <linearGradient id="bgGradient" x1="0%" y1="0%" x2="100%" y2="100%">
      <stop offset="0%" style="stop-color:#1E40AF;stop-opacity:1" />
      <stop offset="100%" style="stop-color:#0EA5E9;stop-opacity:1" />
    </linearGradient>
    <linearGradient id="dropGradient" x1="0%" y1="0%" x2="100%" y2="100%">
      <stop offset="0%" style="stop-color:#3B82F6;stop-opacity:1" />
      <stop offset="100%" style="stop-color:#06B6D4;stop-opacity:1" />
    </linearGradient>
  </defs>
  
  <!-- Arka plan (yuvarlak) -->
  <circle cx="32" cy="32" r="30" fill="url(#bgGradient)"/>
  
  <!-- Su damlası -->
  <g transform="translate(32, 28)">
    <path d="M0 4 C0 4, -6 12, -6 16 C-6 20, -3 23, 0 23 C3 23, 6 20, 6 16 C6 12, 0 4, 0 4 Z" 
          fill="white" opacity="0.95"/>
    <path d="M0 8 C0 8, -3 12, -3 14.5 C-3 17, -1.5 18.5, 0 18.5 C1.5 18.5, 3 17, 3 14.5 C3 12, 0 8, 0 8 Z" 
          fill="url(#dropGradient)"/>
  </g>
  
  <!-- Mızrak ucu (damlanın üstünde) -->
  <g transform="translate(32, 18) rotate(0)">
    <path d="M0 0 L1.5 0 L1.5 8 L3 9.5 L3 11 L1.5 9.5 L1.5 14 L0 14 L0 9.5 L-1.5 11 L-1.5 9.5 L0 8 Z" 
          fill="white" opacity="0.9"/>
  </g>
  
  <!-- Parlama efekti -->
  <circle cx="24" cy="24" r="3" fill="white" opacity="0.4"/>
</svg>

